<svg width="45" height="80" viewBox="0 0 45 80" fill="none" xmlns="http://www.w3.org/2000/svg">
<g clip-path="url(#clip0_2_38)">
<path d="M5.71212 66.6919C5.71212 66.8054 5.6743 66.9037 5.6062 66.9794C5.53055 67.055 5.43976 67.0929 5.31871 67.0929C5.19766 67.0929 5.10687 67.055 5.03877 66.9794C4.96312 66.9037 4.92529 66.8129 4.92529 66.6919C4.92529 66.5708 4.96312 66.48 5.03877 66.4044C5.10687 66.3287 5.20522 66.2909 5.31871 66.2909C5.43219 66.2909 5.53055 66.3287 5.6062 66.4044C5.68186 66.48 5.71212 66.5784 5.71212 66.6919ZM4.38056 66.6919C4.38056 66.8054 4.34273 66.9037 4.27464 66.9794C4.19898 67.055 4.10819 67.0929 3.98714 67.0929C3.86609 67.0929 3.7753 67.055 3.70721 66.9794C3.63155 66.9037 3.59372 66.8129 3.59372 66.6919C3.59372 66.5708 3.63155 66.48 3.70721 66.4044C3.7753 66.3287 3.87365 66.2909 3.98714 66.2909C4.10062 66.2909 4.19898 66.3287 4.27464 66.4044C4.35029 66.48 4.38056 66.5784 4.38056 66.6919ZM8.50388 61.6758C8.50388 61.7893 8.46605 61.8877 8.39796 61.9633C8.3223 62.039 8.23151 62.0768 8.11046 62.0768C7.98941 62.0768 7.89862 62.039 7.83053 61.9633C7.75487 61.8877 7.71704 61.7969 7.71704 61.6758C7.71704 61.411 7.84566 61.2748 8.11046 61.2748C8.37526 61.2748 8.50388 61.411 8.50388 61.6758ZM16.5462 64.2255H17.2196V63.4462C17.0305 63.4462 16.8716 63.5143 16.743 63.6505C16.6068 63.7866 16.5387 63.9455 16.5387 64.1347V64.233L16.5462 64.2255ZM19.0354 65.156H18.014C18.014 65.7083 17.9686 66.0866 17.8702 66.2833C17.7189 66.6011 17.3936 66.76 16.9018 66.76C16.5841 66.76 16.3268 66.6768 16.1226 66.5179C15.9107 66.3439 15.7897 66.1093 15.767 65.8067H17.2272V65.156H15.7594V64.3314C15.7594 63.7413 15.8805 63.3251 16.115 63.0755C16.2739 62.909 16.5538 62.7728 16.9699 62.6594C17.4617 62.5307 17.8097 62.4021 18.0216 62.2735V64.2255H19.6709V60.7679C19.6709 60.5485 19.7541 60.3745 19.913 60.2308C19.9508 60.1929 20.1324 60.0794 20.4577 59.8827V64.7551C20.4577 64.861 20.4199 64.9518 20.3367 65.0274C20.261 65.1107 20.1702 65.1485 20.0643 65.1485H19.0429L19.0354 65.156ZM22.4097 65.156H21.6229V60.7906C21.6229 60.5788 21.7061 60.3972 21.8801 60.2535L22.4097 59.8903V65.156ZM25.2014 64.4676C25.2847 65.035 25.3528 65.3679 25.3906 65.4587C25.5192 65.7537 25.784 65.9051 26.1774 65.9051C26.3968 65.9051 26.6011 65.8521 26.7751 65.7386C26.9794 65.61 27.0777 65.436 27.0777 65.2317V60.8814C27.0777 60.6923 27.1685 60.5031 27.3652 60.3215L27.8721 59.8903V65.156C27.8721 65.5873 27.7133 65.958 27.3955 66.2758C27.0702 66.586 26.6995 66.7449 26.2682 66.7449C25.8748 66.7449 25.5192 66.6238 25.2166 66.3893C24.8912 66.132 24.7248 65.8067 24.7248 65.4133C24.7248 64.9745 24.8837 64.6643 25.2014 64.4751M29.9376 64.233H30.6109V63.4538C30.4218 63.4538 30.2629 63.5218 30.1267 63.658C29.9905 63.7942 29.9225 63.9531 29.9225 64.1422V64.2406L29.9376 64.233ZM31.4053 62.2811V65.8067C31.4053 66.0942 31.2919 66.3363 31.0573 66.5103C30.8455 66.6768 30.5882 66.76 30.2932 66.76C29.9754 66.76 29.7182 66.6768 29.5139 66.5179C29.3021 66.3439 29.181 66.1093 29.1583 65.8067H30.6185V65.156H29.1507V64.3314C29.1507 63.7488 29.2718 63.3251 29.5139 63.0755C29.6728 62.9015 29.9678 62.7653 30.384 62.6518C30.8757 62.5232 31.2162 62.3946 31.4053 62.2811ZM34.7872 65.156H33.7658C33.7658 65.5873 33.7205 65.8975 33.6297 66.0866C33.4935 66.3741 33.2362 66.5179 32.8504 66.5179C32.5856 66.5179 32.3586 66.4271 32.1695 66.2531C31.9728 66.0791 31.8668 65.8672 31.8441 65.6024H32.858V64.2557C32.858 63.9758 32.9412 63.764 33.1001 63.6353C33.1228 63.6126 33.3497 63.4992 33.7658 63.2873V64.2179H36.5954C36.5954 63.7261 36.6257 63.4311 36.6786 63.3403C36.7316 63.2419 36.9661 63.0528 37.3823 62.7804V64.2255H38.9559C38.9559 63.7337 38.9786 63.4462 39.0392 63.3554C39.077 63.2949 39.3115 63.1057 39.7428 62.7804V64.2255H40.923V60.7679C40.923 60.5485 41.0062 60.3745 41.1651 60.2308C41.203 60.1929 41.3845 60.0794 41.7099 59.8827V64.7551C41.7099 64.861 41.672 64.9518 41.5888 65.0274C41.5131 65.1107 41.4224 65.1485 41.3164 65.1485H34.7948L34.7872 65.156ZM37.2234 61.5548C37.2234 61.6682 37.1856 61.7666 37.1175 61.8423C37.0418 61.9179 36.951 61.9557 36.83 61.9557C36.7089 61.9557 36.6181 61.9179 36.5425 61.8423C36.4668 61.7666 36.429 61.6758 36.429 61.5548C36.429 61.29 36.5576 61.1538 36.8224 61.1538C37.0872 61.1538 37.2158 61.29 37.2158 61.5548M35.8767 61.5548C35.8767 61.6682 35.8389 61.7666 35.7708 61.8423C35.6951 61.9179 35.6043 61.9557 35.4833 61.9557C35.3622 61.9557 35.2714 61.9179 35.1958 61.8423C35.1201 61.7666 35.0823 61.6758 35.0823 61.5548C35.0823 61.29 35.2185 61.1538 35.4757 61.1538C35.7329 61.1538 35.8691 61.29 35.8691 61.5548M39.251 66.3363C39.251 66.4498 39.2132 66.5481 39.1451 66.6238C39.0694 66.6995 38.9786 66.7373 38.8576 66.7373C38.7365 66.7373 38.6457 66.6995 38.5701 66.6238C38.4944 66.5481 38.4566 66.4498 38.4566 66.3363C38.4566 66.2228 38.4944 66.1245 38.5701 66.0488C38.6457 65.9731 38.7365 65.9353 38.8576 65.9353C38.9786 65.9353 39.0694 65.9731 39.1451 66.0488C39.2132 66.1245 39.251 66.2152 39.251 66.3363ZM43.6467 65.1485H42.8599V60.7831C42.8599 60.5712 42.9431 60.3896 43.1171 60.2459L43.6467 59.8827V65.1485ZM2.66314 64.2179H5.01608C5.01608 63.7261 5.04634 63.4311 5.0993 63.3403C5.15226 63.2419 5.3868 63.0528 5.80291 62.7804V64.2255H7.77V64.0666C7.77 63.8396 7.82296 63.6732 7.94401 63.5672L8.55684 63.189V64.2255H9.48742V60.7074C9.48742 60.5031 9.57065 60.3291 9.73709 60.1929C9.79005 60.1551 9.96406 60.0492 10.2667 59.8827V63.0755C10.3499 62.9771 10.4634 62.8863 10.5996 62.8107C10.7509 62.735 10.8871 62.6896 11.0081 62.6896H13.6713C13.8907 62.6896 14.0723 62.7653 14.2311 62.9166C14.3824 63.0679 14.4581 63.2495 14.4581 63.4538V64.7475C14.4581 64.8459 14.4203 64.9366 14.3371 65.0199C14.2614 65.1031 14.1706 65.1409 14.0647 65.1409H0.196709V64.2103C0.196709 63.8623 0.295063 63.537 0.484206 63.2344C0.696047 62.8939 0.960847 62.7048 1.28617 62.6669L2.04275 62.5837C2.25459 62.5383 2.47399 62.4097 2.6934 62.1978V64.2103L2.66314 64.2179ZM10.2591 64.2179H13.6637V63.8774C13.6637 63.7715 13.6107 63.6807 13.4973 63.6126C13.4065 63.5521 13.3005 63.5218 13.1871 63.5218H10.2516V64.2179H10.2591ZM0.953281 64.2179H1.86873V63.4765C1.79308 63.4538 1.71742 63.4386 1.6342 63.4386C1.46019 63.4386 1.3013 63.5067 1.15756 63.6429C1.01381 63.7791 0.945716 63.9304 0.945716 64.1044V64.2179H0.953281ZM1.20295 60.9117C1.20295 61.0252 1.16512 61.1235 1.09703 61.1992C1.02137 61.2748 0.930584 61.3127 0.817098 61.3127C0.703613 61.3127 0.605258 61.2748 0.537166 61.1992C0.461509 61.1235 0.423681 61.0252 0.423681 60.9117C0.423681 60.6469 0.552298 60.5183 0.817098 60.5183C1.0819 60.5183 1.21052 60.6544 1.21052 60.9117M2.54965 60.9117C2.54965 61.0252 2.51182 61.1235 2.44373 61.1992C2.36807 61.2748 2.27728 61.3127 2.15623 61.3127C2.03518 61.3127 1.94439 61.2748 1.8763 61.1992C1.80064 61.1235 1.76281 61.0252 1.76281 60.9117C1.76281 60.6469 1.89143 60.5183 2.15623 60.5183C2.42103 60.5183 2.54965 60.6544 2.54965 60.9117Z" fill="black"/>
<path d="M28.9465 73.955H29.6123C30.278 73.955 30.7017 73.5918 30.7017 73.0017C30.7017 72.4645 30.3083 72.1241 29.6577 72.1241H28.9465V73.955ZM25.209 79.8336V69.2037H30.278C32.7672 69.2037 34.4468 70.7471 34.4468 73.0244C34.4468 75.3017 33.1001 76.6257 31.0724 76.6257H28.9465V79.826H25.209V79.8336ZM12.5288 79.8336V69.2037H16.2058L18.642 73.206C19.164 74.0685 19.2775 74.2727 19.6406 75.105H19.7541C19.5347 74.0533 19.5044 73.7961 19.4893 72.5705L19.4288 69.2113H23.1057V79.8411H19.4288L16.8035 75.6497C16.516 75.2033 16.3571 74.9007 16.0772 74.2652H15.9637C16.1226 75.2412 16.168 75.7027 16.168 76.2247L16.2134 79.8411H12.5364L12.5288 79.8336ZM0.749008 79.8336V69.2037H4.44108V72.1165C4.44108 72.9941 4.44108 73.1228 4.36543 73.8037C4.52431 73.4557 4.63779 73.1984 4.88746 72.7672C5.17496 72.3057 5.3641 71.9728 5.4095 71.8593L6.83185 69.1961H11.0157L7.70191 74.3787L11.3637 79.826H6.91508L5.17496 76.7846C4.88746 76.2398 5.04634 76.5273 4.66806 75.8615C4.49404 75.5438 4.52431 75.6043 4.44865 75.3849C4.43352 75.801 4.44865 76.0204 4.44865 76.8981V79.8336H0.749008ZM43.5105 75.5967L43.397 79.5612C42.8069 79.8184 41.672 79.9924 40.6885 79.9924C37.6622 79.9924 35.3017 77.6319 35.3017 74.6056C35.3017 71.5793 37.7076 69.0448 40.8095 69.0448C41.7099 69.0448 42.648 69.1886 43.397 69.4609L43.5105 73.5086C42.6556 72.7596 42.0049 72.4418 41.2786 72.4418C40.1059 72.4418 39.1905 73.3497 39.1905 74.4997C39.1905 75.6497 40.1362 76.5879 41.3089 76.5879C42.1335 76.5879 42.7161 76.3155 43.5105 75.5967Z" fill="black"/>
<path d="M26.2606 44.1838C26.2606 44.1838 16.1226 39.773 16.1226 34.129C16.1226 27.0323 23.7488 21.6531 25.557 13.4897C27.1912 6.10554 20.7452 0 20.7452 0C20.7452 0 20.8814 2.44373 20.6544 3.29109C20.435 4.11576 19.5801 6.48383 16.7732 10.3877C13.9663 14.2917 5.12956 22.6594 5.55324 30.505C5.97692 38.3507 14.0193 41.6947 14.4884 41.9747C14.9499 42.2546 18.9294 43.6164 20.2837 43.8964C21.638 44.1763 26.2682 44.1763 26.2682 44.1763" fill="#ED1D24"/>
<path d="M29.529 14.3824C29.529 14.3824 33.554 18.2334 33.2211 22.1373C32.8882 26.0412 30.9741 28.0613 30.9741 28.0613C30.9741 28.0613 24.3843 34.4089 24.808 37.6092C25.3679 41.7931 27.7965 43.7148 27.7965 43.7148C27.7965 43.7148 18.6798 39.8109 18.3998 33.9852C18.1199 28.1596 27.2366 24.0287 29.1507 16.9321L29.5215 14.39L29.529 14.3824Z" fill="#00A651"/>
<path d="M44.0174 45.9769H0C0 45.9769 0.506904 46.6881 1.02137 47.3388C1.53584 47.997 2.09571 48.3677 2.09571 48.3677C2.09571 48.3677 6.25686 47.8078 7.7927 47.8078C9.32854 47.8078 14.3824 48.519 16.2966 48.8897C18.2107 49.2605 26.8054 51.0006 30.8757 51.0006C34.9461 51.0006 38.1161 50.0095 39.7503 49.3588C41.3845 48.7082 44.0023 45.9769 44.0023 45.9769" fill="#034EA2"/>
<path d="M35.6951 53.1644C35.6951 53.1644 28.5984 56.7354 21.8196 56.7354C15.0407 56.7354 10.2289 54.1025 9.24532 53.6334C8.26177 53.1644 5.88614 51.7117 5.88614 51.7117C5.88614 51.7117 7.57329 50.2137 12.945 50.1608C18.3166 50.1078 23.5521 51.8025 25.2771 52.0825C27.0021 52.3624 33.4481 53.1644 34.1517 53.1644H35.6951Z" fill="#034EA2"/>
</g>
<defs>
<clipPath id="clip0_2_38">
<rect width="44.0174" height="80" fill="white"/>
</clipPath>
</defs>
</svg>
